Genre:Action | Drama | Thriller
Language:English
IMDb:http://www.imdb.com/title/tt1479398/
Source:720p.BluRay.x264-MELiTE

General
Complete name :Transparency.2010.BRRip.720p.H264.Feel-Free
Format : MPEG-4
Format profile : Base Media
Codec ID : mp42
File size : 1.43 GiB
Duration : 1h 36mn
Overall bit rate : 2 113 Kbps
Video #1
Codec ID : avc1
Codec ID/Info : Advanced Video Coding
Duration : 1h 36mn
Bit rate mode : Variable
Bit rate : 1 535 Kbps
Width : 1 280 pixels
Height : 528 pixels
Display aspect ratio : 2.40:1
Frame rate mode : Constant
Frame rate : 23.976 fps
Resolution : 24 bits
Colorimetry : 4:2:0
Scan type : Progressive
Bits/(Pixel*Frame) : 0.095
Stream size : 1.04 GiB (73%)
Audio #2
ID : 2
Format : AAC
Format/Info : Advanced Audio Codec
Format version : Version 4
Format profile : LC
Format settings, SBR : No
Codec ID : 40
Duration : 1h 36mn
Bit rate mode : Constant
Bit rate : 576 Kbps
Channel(s) : 6 channels
Channel positions : Front: L C R, Rear: L R, LFE
Sampling rate : 48.0 KHz
Resolution : 16 bits
Stream size : 397 MiB (27%)

Plot:
An security guard uncovers more than he bargained for.


screens
 
http://www.rapidhdd.com/images/367550vlcsnap-2010-11-15-23h05m05s41.png 
http://rapidhdd.com/images/14287vlcsnap-2010-11-15-23h02m33s55.png 
http://www.rapidhdd.com/images/696089vlcsnap-2010-11-15-23h03m50s60.png 
http://www.rapidhdd.com/images/493902vlcsnap-2010-11-15-23h04m46s101.png 
http://www.rapidhdd.com/images/711126vlcsnap-2010-11-15-23h09m20s19.png
